Coordinates
version=1
nRows=10
nColumns=40
inDegrees=yes

Units are S.I. units (second, meters, Newtons, ...)
Angles are in degrees.

endheader
time	pelvis_tilt	pelvis_list	pelvis_rotation	pelvis_tx	pelvis_ty	pelvis_tz	hip_flexion_r	hip_adduction_r	hip_rotation_r	knee_angle_r	knee_angle_r_beta	ankle_angle_r	subtalar_angle_r	mtp_angle_r	hip_flexion_l	hip_adduction_l	hip_rotation_l	knee_angle_l	knee_angle_l_beta	ankle_angle_l	subtalar_angle_l	mtp_angle_l	lumbar_extension	lumbar_bending	lumbar_rotation	arm_flex_r	arm_add_r	arm_rot_r	elbow_flex_r	pro_sup_r	wrist_flex_r	wrist_dev_r	arm_flex_l	arm_add_l	arm_rot_l	elbow_flex_l	pro_sup_l	wrist_flex_l	wrist_dev_l
     31.16442857	     -0.95413006	     -3.75052003	      8.53969329	      1.06731607	      0.90458866	      0.57883068	     18.32303479	      4.86374221	     -8.80768433	     35.63325793	     35.63325793	     19.13831239	    -16.95229014	      1.48918854	     36.71947793	    -10.09296645	      7.56926594	     60.09943046	     60.09943046	     15.02684871	    -19.53771114	     21.45230283	    -13.26125363	      4.65587417	      1.03938472	     30.87817570	    -20.80524911	     -4.72144381	     68.74824244	     45.22236785	      0.00000000	      0.00000000	     -8.23326809	     -9.39901991	      7.57819551	     20.83076766	     46.23878056	      0.00000000	      0.00000000
     31.18635714	     -0.94807115	     -3.51342005	      9.43175259	      1.06479637	      0.90639304	      0.57809349	     17.73170261	      4.52403840	     -9.35458013	     34.96007284	     34.96007284	     19.73093489	    -16.63248836	      3.36884628	     36.43803908	     -9.25418616	      7.40939815	     55.88233619	     55.88233619	     14.50176252	    -19.47065244	     19.75690134	    -13.22034380	      4.56943243	      0.12449226	     34.57644183	    -19.69380220	     -4.40807432	     69.39325794	     45.26976552	      0.00000000	      0.00000000	    -11.76390424	    -11.37484882	     20.01606143	     25.30957330	     43.64679053	      0.00000000	      0.00000000
     31.20828571	     -1.19738919	     -3.24205907	     10.26137259	      1.06195347	      0.90864745	      0.57701958	     17.18774418	      4.06890653	    -10.00895743	     33.80196374	     33.80196374	     19.39331420	    -16.45539073	      3.07817894	     36.11559035	     -8.32399432	      7.27973368	     51.21662787	     51.21662787	     13.15536672	    -19.33582998	     17.44263516	    -12.94728364	      4.35599488	      0.13397422	     37.20168803	    -19.60498591	     -4.58645231	     71.17550351	     45.23670436	      0.00000000	      0.00000000	    -13.32120131	    -11.31318093	     20.46210959	     26.02125001	     43.61317386	      0.00000000	      0.00000000
     31.23021429	     -1.51934980	     -2.99139973	     11.04225038	      1.05893820	      0.91141306	      0.57572401	     16.54680897	      3.61546592	    -10.74753198	     32.29993212	     32.29993212	     18.85699869	    -16.06778880	      2.55473568	     35.62067359	     -7.40823952	      7.26794678	     46.27870468	     46.27870468	     11.06434532	    -19.10358355	     14.59406493	    -12.63023560	      4.14383069	      0.10573997	     39.85026429	    -19.57136080	     -4.50672874	     73.01212926	     45.19471183	      0.00000000	      0.00000000	    -14.72078050	    -11.17564863	     21.22323722	     26.76023634	     43.53264622	      0.00000000	      0.00000000
     31.25214286	     -1.85892037	     -2.74203513	     11.74906798	      1.05586670	      0.91445343	      0.57427321	     15.79204918	      3.17797943	    -11.50396679	     30.55393639	     30.55393639	     18.16697611	    -15.54514667	      1.77572648	     34.95936151	     -6.59047765	      7.25105254	     41.26891159	     41.26891159	      8.38329873	    -18.63118140	     11.27507250	    -12.32121810	      3.90363671	      0.21093343	     42.44499008	    -19.68978212	     -4.33028258	     74.92126248	     45.15072960	      0.00000000	      0.00000000	    -15.85356963	    -11.06512343	     22.22389475	     27.54226277	     43.43801967	      0.00000000	      0.00000000
     31.27407143	     -2.17549550	     -2.53105972	     12.37399427	      1.05273085	      0.91766569	      0.57273111	     14.96057690	      2.84126832	    -12.16204607	     28.70858667	     28.70858667	     17.72990412	    -14.91650749	      1.93628894	     34.36059457	     -5.87291630	      7.33562685	     36.78906822	     36.78906822	      6.78541941	    -17.42692744	     11.45703470	    -12.01778423	      3.69457565	      0.40953570	     45.03967443	    -19.73726622	     -4.37546214	     76.42014316	     45.11722033	      0.00000000	      0.00000000	    -16.59108432	    -10.69923009	     22.53547975	     27.57906713	     43.39707534	      0.00000000	      0.00000000
     31.29600000	     -2.56252614	     -2.37190108	     12.91417074	      1.04967777	      0.92053567	      0.57129944	     14.20809006	      2.54931792	    -12.88011316	     26.85174176	     26.85174176	     17.22849061	    -14.02776390	      1.92530299	     33.88248423	     -5.44885975	      7.08759599	     32.75296430	     32.75296430	      5.23141260	    -15.24640881	     11.14469931	    -11.65438617	      3.45117911	      0.53889551	     47.57589236	    -19.63283214	     -4.23146403	     78.17948908	     45.06871828	      0.00000000	      0.00000000	    -17.30195450	    -10.34560367	     22.84021046	     27.70564344	     43.35625206	      0.00000000	      0.00000000
     31.31792857	     -2.85750209	     -2.37415112	     13.38630691	      1.04683291	      0.92287212	      0.56979375	     13.33091936	      2.44791498	    -13.74525849	     24.84408246	     24.84408246	     15.94925715	    -13.29485907	     -0.62064270	     33.23418998	     -5.37409291	      6.59907723	     28.77578044	     28.77578044	      1.35246376	    -13.46926503	      5.04598921	    -11.39173814	      3.44506178	      0.85363217	     49.80904766	    -20.05944403	     -3.55295325	     81.08723946	     44.99754146	      0.00000000	      0.00000000	    -17.99812375	    -10.40163061	     24.59068150	     28.77969482	     43.23801294	      0.00000000	      0.00000000
     31.33985714	     -3.20033328	     -2.30740986	     13.75762871	      1.04400662	      0.92497645	      0.56840231	     12.67810158	      2.31648165	    -14.30966049	     23.24273645	     23.24273645	     15.60043024	    -12.46390596	     -0.46286295	     32.93118596	     -5.24309925	      6.09311412	     25.97243588	     25.97243588	      0.15893461	    -10.92430174	      5.53680536	    -11.03239768	      3.25139382	      1.02749201	     52.12735870	    -19.80550524	     -3.46312228	     82.53840322	     44.96098695	      0.00000000	      0.00000000	    -18.42424116	    -10.11004839	     24.83475221	     28.72407907	     43.21550798	      0.00000000	      0.00000000
     31.36178571	     -3.52561255	     -2.37415713	     14.05154730	      1.04133375	      0.92642662	      0.56709679	     12.14279070	      2.32081341	    -14.88375514	     21.85089123	     21.85089123	     15.31679324	    -11.55245420	     -0.49313449	     32.79762188	     -5.32345269	      5.52972520	     23.89280806	     23.89280806	     -0.97713543	     -8.59395676	      5.69222526	    -10.70838200	      3.16496665	      1.15199556	     54.36809063	    -19.52755089	     -3.25084894	     84.19834070	     44.91345926	      0.00000000	      0.00000000	    -18.75015403	     -9.83845363	     25.05351315	     28.67863855	     43.19647151	      0.00000000	      0.00000000
